<svg width="26" height="25" viewBox="0 0 26 25" fill="none" xmlns="http://www.w3.org/2000/svg">
<path d="M17.8372 16.8524L18.4452 16.2484L17.0333 14.8299L16.428 15.4338L17.8372 16.8524ZM20.4836 15.9951L23.0314 17.3803L23.9846 15.6232L21.4382 14.2393L20.4836 15.9951ZM23.5207 20.1321L21.6275 22.0159L23.0367 23.4331L24.9299 21.5506L23.5207 20.1321ZM20.473 22.6212C18.5398 22.8025 13.5403 22.6412 8.1248 17.2577L6.71427 18.6749C12.623 24.5503 18.2479 24.8383 20.6596 24.613L20.473 22.6212ZM8.1248 17.2577C2.96395 12.1248 2.10803 7.80923 2.00138 5.93607L0.00423083 6.04939C0.137552 8.40651 1.19745 13.1901 6.71427 18.6749L8.1248 17.2577ZM9.95796 9.01845L10.3406 8.63715L8.93273 7.21995L8.5501 7.59992L9.95796 9.01845ZM10.6446 3.79094L8.96472 1.54582L7.36354 2.7457L9.04338 4.98949L10.6446 3.79094ZM3.31059 1.05653L1.21745 3.13633L2.62798 4.55487L4.71979 2.47506L3.31059 1.05653ZM9.25403 8.30918C8.54743 7.59992 8.54743 7.59992 8.54743 7.60258H8.54476L8.54076 7.60791C8.47741 7.67179 8.42068 7.74192 8.37145 7.81723C8.29945 7.92388 8.22079 8.06387 8.15413 8.24119C7.99185 8.69891 7.95142 9.19098 8.03681 9.66905C8.21546 10.8223 9.01005 12.3461 11.0445 14.3699L12.4551 12.9514C10.5499 11.0583 10.0966 9.90637 10.0126 9.36242C9.97263 9.10377 10.014 8.97579 10.026 8.94646C10.034 8.92868 10.034 8.92601 10.026 8.93846C10.0141 8.95685 10.0007 8.97424 9.98596 8.99045L9.97263 9.00378L9.9593 9.01578L9.25403 8.30918ZM11.0445 14.3699C13.0803 16.3938 14.6122 17.183 15.7668 17.359C16.3574 17.4497 16.8333 17.3777 17.1946 17.243C17.397 17.169 17.5861 17.0627 17.7546 16.9284L17.8212 16.8684L17.8306 16.8604L17.8346 16.8564L17.8359 16.8537C17.8359 16.8537 17.8372 16.8524 17.132 16.1431C16.4254 15.4338 16.4294 15.4325 16.4294 15.4325L16.432 15.4298L16.4347 15.4272L16.4427 15.4205L16.456 15.4072L16.5067 15.3672C16.5191 15.3592 16.516 15.3601 16.4973 15.3699C16.464 15.3819 16.3334 15.4232 16.0707 15.3832C15.5188 15.2979 14.3589 14.8446 12.4551 12.9514L11.0445 14.3699ZM8.96472 1.54448C7.60485 -0.268679 4.9331 -0.556652 3.31059 1.05653L4.71979 2.47506C5.42905 1.7698 6.6876 1.84312 7.36354 2.7457L8.96472 1.54448ZM2.00271 5.93741C1.97605 5.47611 2.18803 4.99349 2.62798 4.5562L1.21612 3.13767C0.500184 3.8496 -0.0637628 4.85751 0.00423083 6.04939L2.00271 5.93741ZM21.6275 22.0159C21.2622 22.3812 20.8676 22.5865 20.4743 22.6225L20.6596 24.613C21.6395 24.521 22.4408 24.0277 23.0381 23.4344L21.6275 22.0159ZM10.3406 8.63715C11.6538 7.33194 11.7511 5.26947 10.6459 3.79227L9.04472 4.99083C9.582 5.70943 9.50201 6.652 8.93139 7.22128L10.3406 8.63715ZM23.0327 17.3817C24.122 17.9736 24.2913 19.3681 23.522 20.1334L24.9326 21.5506C26.7191 19.7734 26.1684 16.8097 23.986 15.6245L23.0327 17.3817ZM18.4452 16.2498C18.9571 15.7405 19.781 15.6152 20.485 15.9965L21.4396 14.2406C19.9944 13.454 18.2025 13.6713 17.0346 14.8312L18.4452 16.2498Z" fill="#EEEEEF"/>
</svg>
