<svg width="28" height="23" viewBox="0 0 28 23" fill="none" xmlns="http://www.w3.org/2000/svg">
<path d="M19.7778 22H25.5556C25.9386 22 26.306 21.842 26.5769 21.5607C26.8478 21.2794 27 20.8978 27 20.5V19C27 17.8065 26.5435 16.6619 25.7308 15.818C24.9181 14.9741 23.8159 14.5 22.6667 14.5H19.7778M16.548 8.5C17.1331 9.17929 17.903 9.65809 18.7558 9.87304C19.6087 10.088 20.5043 10.029 21.3241 9.70378C22.1439 9.37858 22.8494 8.80255 23.3471 8.0519C23.8447 7.30125 24.1112 6.41136 24.1112 5.5C24.1112 4.58864 23.8447 3.69875 23.3471 2.9481C22.8494 2.19745 22.1439 1.62142 21.3241 1.29623C20.5043 0.971031 19.6087 0.912005 18.7558 1.12696C17.903 1.34191 17.1331 1.82071 16.548 2.5M1 20.5V19C1 17.8065 1.45655 16.6619 2.2692 15.818C3.08186 14.9741 4.18406 14.5 5.33333 14.5H11.1111C12.2604 14.5 13.3626 14.9741 14.1752 15.818C14.9879 16.6619 15.4444 17.8065 15.4444 19V20.5C15.4444 20.8978 15.2923 21.2794 15.0214 21.5607C14.7505 21.842 14.3831 22 14 22H2.44444C2.06135 22 1.69395 21.842 1.42307 21.5607C1.15218 21.2794 1 20.8978 1 20.5ZM12.5556 5.5C12.5556 6.69347 12.099 7.83807 11.2864 8.68198C10.4737 9.52589 9.37149 10 8.22222 10C7.07295 10 5.97075 9.52589 5.15809 8.68198C4.34544 7.83807 3.88889 6.69347 3.88889 5.5C3.88889 4.30653 4.34544 3.16193 5.15809 2.31802C5.97075 1.47411 7.07295 1 8.22222 1C9.37149 1 10.4737 1.47411 11.2864 2.31802C12.099 3.16193 12.5556 4.30653 12.5556 5.5Z" stroke="white" stroke-width="2" stroke-linecap="round"/>
</svg>
