<svg width="26" height="26" viewBox="0 0 26 26" fill="none" xmlns="http://www.w3.org/2000/svg">
<path d="M12.7396 0C19.7756 0 25.4791 5.7035 25.4791 12.7396C25.4791 19.7756 19.7756 25.4791 12.7396 25.4791C5.7035 25.4791 0 19.7756 0 12.7396C0 5.7035 5.7035 0 12.7396 0ZM12.7396 2.54791C10.0366 2.54791 7.44429 3.62167 5.53298 5.53298C3.62167 7.44429 2.54791 10.0366 2.54791 12.7396C2.54791 15.4426 3.62167 18.0349 5.53298 19.9462C7.44429 21.8575 10.0366 22.9312 12.7396 22.9312C15.4426 22.9312 18.0349 21.8575 19.9462 19.9462C21.8575 18.0349 22.9312 15.4426 22.9312 12.7396C22.9312 10.0366 21.8575 7.44429 19.9462 5.53298C18.0349 3.62167 15.4426 2.54791 12.7396 2.54791ZM12.7396 5.09583C13.0516 5.09587 13.3528 5.21043 13.5859 5.41778C13.8191 5.62512 13.9681 5.91084 14.0046 6.22073L14.0135 6.36978V12.2122L17.4621 15.6608C17.6906 15.89 17.8233 16.1976 17.8331 16.5212C17.843 16.8447 17.7294 17.1598 17.5153 17.4026C17.3012 17.6454 17.0028 17.7976 16.6806 17.8283C16.3584 17.859 16.0366 17.7659 15.7805 17.5679L15.6608 17.4621L11.8389 13.6403C11.6409 13.4421 11.5137 13.1842 11.4771 12.9065L11.4656 12.7396V6.36978C11.4656 6.03191 11.5998 5.70787 11.8387 5.46896C12.0777 5.23005 12.4017 5.09583 12.7396 5.09583Z" fill="#EEEEEF"/>
</svg>
