<svg width="213" height="112" viewBox="0 0 213 112" fill="none" xmlns="http://www.w3.org/2000/svg">
<mask id="mask0_518_4" style="mask-type:alpha" maskUnits="userSpaceOnUse" x="8" y="0" width="205" height="70">
<path d="M212.5 41L8 69.5V0H212.5V41Z" fill="#D9D9D9"/>
</mask>
<g mask="url(#mask0_518_4)">
<path d="M47.5 86H31.5C28.1933 86 25.3667 84.8267 23.02 82.48C20.6733 80.1333 19.5 77.3067 19.5 74V42C19.5 38.6933 20.6733 35.8667 23.02 33.52C25.3667 31.1733 28.1933 30 31.5 30H47.5C50.8067 30 53.6333 31.1733 55.98 33.52C58.3267 35.8667 59.5 38.6933 59.5 42V46H51.5V42C51.5 40.88 51.1 39.9467 50.3 39.2C49.5533 38.4 48.62 38 47.5 38H31.5C30.38 38 29.42 38.4 28.62 39.2C27.8733 39.9467 27.5 40.88 27.5 42V74C27.5 75.12 27.8733 76.08 28.62 76.88C29.42 77.6267 30.38 78 31.5 78H47.5C48.62 78 49.5533 77.6267 50.3 76.88C51.1 76.08 51.5 75.12 51.5 74V70H59.5V74C59.5 77.3067 58.3267 80.1333 55.98 82.48C53.6333 84.8267 50.8067 86 47.5 86ZM99.4688 54V30H107.469V86H99.4688V62H75.4688V86H67.4688V30H75.4688V54H99.4688ZM143.438 86H127.438C124.131 86 121.304 84.8267 118.958 82.48C116.611 80.1333 115.438 77.3067 115.438 74V42C115.438 38.6933 116.611 35.8667 118.958 33.52C121.304 31.1733 124.131 30 127.438 30H143.438C146.744 30 149.571 31.1733 151.918 33.52C154.264 35.8667 155.438 38.6933 155.438 42V74C155.438 77.3067 154.264 80.1333 151.918 82.48C149.571 84.8267 146.744 86 143.438 86ZM143.438 38H127.438C126.318 38 125.358 38.4 124.558 39.2C123.811 39.9467 123.438 40.88 123.438 42V74C123.438 75.12 123.811 76.08 124.558 76.88C125.358 77.6267 126.318 78 127.438 78H143.438C144.558 78 145.491 77.6267 146.238 76.88C147.038 76.08 147.438 75.12 147.438 74V42C147.438 40.88 147.038 39.9467 146.238 39.2C145.491 38.4 144.558 38 143.438 38ZM171.406 62V86H163.406V30H191.406C194.713 30 197.54 31.1733 199.886 33.52C202.233 35.8667 203.406 38.6933 203.406 42V50C203.406 53.3067 202.233 56.1333 199.886 58.48C197.54 60.8267 194.713 62 191.406 62H171.406ZM171.406 38V54H191.406C192.526 54 193.46 53.6267 194.206 52.88C195.006 52.08 195.406 51.12 195.406 50V42C195.406 40.88 195.006 39.9467 194.206 39.2C193.46 38.4 192.526 38 191.406 38H171.406Z" fill="white"/>
</g>
<mask id="mask1_518_4" style="mask-type:alpha" maskUnits="userSpaceOnUse" x="0" y="42" width="205" height="70">
<path d="M0 70.5L204.5 42V111.5H0V70.5Z" fill="#D9D9D9"/>
</mask>
<g mask="url(#mask1_518_4)">
<path d="M39.5 87H23.5C20.1933 87 17.3667 85.8267 15.02 83.48C12.6733 81.1333 11.5 78.3067 11.5 75V43C11.5 39.6933 12.6733 36.8667 15.02 34.52C17.3667 32.1733 20.1933 31 23.5 31H39.5C42.8067 31 45.6333 32.1733 47.98 34.52C50.3267 36.8667 51.5 39.6933 51.5 43V47H43.5V43C43.5 41.88 43.1 40.9467 42.3 40.2C41.5533 39.4 40.62 39 39.5 39H23.5C22.38 39 21.42 39.4 20.62 40.2C19.8733 40.9467 19.5 41.88 19.5 43V75C19.5 76.12 19.8733 77.08 20.62 77.88C21.42 78.6267 22.38 79 23.5 79H39.5C40.62 79 41.5533 78.6267 42.3 77.88C43.1 77.08 43.5 76.12 43.5 75V71H51.5V75C51.5 78.3067 50.3267 81.1333 47.98 83.48C45.6333 85.8267 42.8067 87 39.5 87ZM91.4688 55V31H99.4688V87H91.4688V63H67.4688V87H59.4688V31H67.4688V55H91.4688ZM135.438 87H119.438C116.131 87 113.304 85.8267 110.958 83.48C108.611 81.1333 107.438 78.3067 107.438 75V43C107.438 39.6933 108.611 36.8667 110.958 34.52C113.304 32.1733 116.131 31 119.438 31H135.438C138.744 31 141.571 32.1733 143.918 34.52C146.264 36.8667 147.438 39.6933 147.438 43V75C147.438 78.3067 146.264 81.1333 143.918 83.48C141.571 85.8267 138.744 87 135.438 87ZM135.438 39H119.438C118.318 39 117.358 39.4 116.558 40.2C115.811 40.9467 115.438 41.88 115.438 43V75C115.438 76.12 115.811 77.08 116.558 77.88C117.358 78.6267 118.318 79 119.438 79H135.438C136.558 79 137.491 78.6267 138.238 77.88C139.038 77.08 139.438 76.12 139.438 75V43C139.438 41.88 139.038 40.9467 138.238 40.2C137.491 39.4 136.558 39 135.438 39ZM163.406 63V87H155.406V31H183.406C186.713 31 189.54 32.1733 191.886 34.52C194.233 36.8667 195.406 39.6933 195.406 43V51C195.406 54.3067 194.233 57.1333 191.886 59.48C189.54 61.8267 186.713 63 183.406 63H163.406ZM163.406 39V55H183.406C184.526 55 185.46 54.6267 186.206 53.88C187.006 53.08 187.406 52.12 187.406 51V43C187.406 41.88 187.006 40.9467 186.206 40.2C185.46 39.4 184.526 39 183.406 39H163.406Z" fill="white"/>
</g>
</svg>
