<svg width="170" height="89" viewBox="0 0 170 89" fill="none" xmlns="http://www.w3.org/2000/svg">
<mask id="mask0_518_130" style="mask-type:alpha" maskUnits="userSpaceOnUse" x="6" y="0" width="164" height="56">
<path d="M169.619 32.7265L6.38565 55.4753V0H169.619V32.7265Z" fill="#D9D9D9"/>
</mask>
<g mask="url(#mask0_518_130)">
<path d="M37.9148 68.3498H25.1435C22.5041 68.3498 20.2479 67.4132 18.3747 65.5401C16.5016 63.667 15.565 61.4107 15.565 58.7713V33.2287C15.565 30.5893 16.5016 28.333 18.3747 26.4599C20.2479 24.5868 22.5041 23.6502 25.1435 23.6502H37.9148C40.5542 23.6502 42.8105 24.5868 44.6836 26.4599C46.5567 28.333 47.4933 30.5893 47.4933 33.2287V36.4215H41.1077V33.2287C41.1077 32.3347 40.7884 31.5897 40.1498 30.9937C39.5538 30.3552 38.8088 30.0359 37.9148 30.0359H25.1435C24.2495 30.0359 23.4833 30.3552 22.8447 30.9937C22.2487 31.5897 21.9507 32.3347 21.9507 33.2287V58.7713C21.9507 59.6653 22.2487 60.4316 22.8447 61.0701C23.4833 61.6661 24.2495 61.9641 25.1435 61.9641H37.9148C38.8088 61.9641 39.5538 61.6661 40.1498 61.0701C40.7884 60.4316 41.1077 59.6653 41.1077 58.7713V55.5785H47.4933V58.7713C47.4933 61.4107 46.5567 63.667 44.6836 65.5401C42.8105 67.4132 40.5542 68.3498 37.9148 68.3498ZM79.3966 42.8072V23.6502H85.7823V68.3498H79.3966V49.1928H60.2397V68.3498H53.854V23.6502H60.2397V42.8072H79.3966ZM114.493 68.3498H101.721C99.082 68.3498 96.8258 67.4132 94.9526 65.5401C93.0795 63.667 92.143 61.4107 92.143 58.7713V33.2287C92.143 30.5893 93.0795 28.333 94.9526 26.4599C96.8258 24.5868 99.082 23.6502 101.721 23.6502H114.493C117.132 23.6502 119.388 24.5868 121.262 26.4599C123.135 28.333 124.071 30.5893 124.071 33.2287V58.7713C124.071 61.4107 123.135 63.667 121.262 65.5401C119.388 67.4132 117.132 68.3498 114.493 68.3498ZM114.493 30.0359H101.721C100.827 30.0359 100.061 30.3552 99.4226 30.9937C98.8266 31.5897 98.5286 32.3347 98.5286 33.2287V58.7713C98.5286 59.6653 98.8266 60.4316 99.4226 61.0701C100.061 61.6661 100.827 61.9641 101.721 61.9641H114.493C115.387 61.9641 116.132 61.6661 116.728 61.0701C117.366 60.4316 117.686 59.6653 117.686 58.7713V33.2287C117.686 32.3347 117.366 31.5897 116.728 30.9937C116.132 30.3552 115.387 30.0359 114.493 30.0359ZM136.818 49.1928V68.3498H130.432V23.6502H152.782C155.421 23.6502 157.677 24.5868 159.55 26.4599C161.424 28.333 162.36 30.5893 162.36 33.2287V39.6143C162.36 42.2538 161.424 44.51 159.55 46.3831C157.677 48.2563 155.421 49.1928 152.782 49.1928H136.818ZM136.818 30.0359V42.8072H152.782C153.676 42.8072 154.421 42.5092 155.017 41.9132C155.655 41.2746 155.975 40.5083 155.975 39.6143V33.2287C155.975 32.3347 155.655 31.5897 155.017 30.9937C154.421 30.3552 153.676 30.0359 152.782 30.0359H136.818Z" fill="#2F28D0"/>
</g>
<mask id="mask1_518_130" style="mask-type:alpha" maskUnits="userSpaceOnUse" x="0" y="33" width="164" height="56">
<path d="M0 56.2735L163.233 33.5247V89H0V56.2735Z" fill="#D9D9D9"/>
</mask>
<g mask="url(#mask1_518_130)">
<path d="M31.5291 69.148H18.7578C16.1184 69.148 13.8622 68.2114 11.9891 66.3383C10.1159 64.4652 9.17937 62.2089 9.17937 59.5695V34.0269C9.17937 31.3875 10.1159 29.1312 11.9891 27.2581C13.8622 25.385 16.1184 24.4484 18.7578 24.4484H31.5291C34.1685 24.4484 36.4248 25.385 38.2979 27.2581C40.1711 29.1312 41.1076 31.3875 41.1076 34.0269V37.2197H34.722V34.0269C34.722 33.1329 34.4027 32.3879 33.7641 31.7919C33.1681 31.1534 32.4231 30.8341 31.5291 30.8341H18.7578C17.8639 30.8341 17.0976 31.1534 16.459 31.7919C15.863 32.3879 15.565 33.1329 15.565 34.0269V59.5695C15.565 60.4635 15.863 61.2298 16.459 61.8683C17.0976 62.4643 17.8639 62.7623 18.7578 62.7623H31.5291C32.4231 62.7623 33.1681 62.4643 33.7641 61.8683C34.4027 61.2298 34.722 60.4635 34.722 59.5695V56.3767H41.1076V59.5695C41.1076 62.2089 40.1711 64.4652 38.2979 66.3383C36.4248 68.2114 34.1685 69.148 31.5291 69.148ZM73.0109 43.6054V24.4484H79.3966V69.148H73.0109V49.991H53.854V69.148H47.4683V24.4484H53.854V43.6054H73.0109ZM108.107 69.148H95.3358C92.6964 69.148 90.4401 68.2114 88.567 66.3383C86.6938 64.4652 85.7573 62.2089 85.7573 59.5695V34.0269C85.7573 31.3875 86.6938 29.1312 88.567 27.2581C90.4401 25.385 92.6964 24.4484 95.3358 24.4484H108.107C110.746 24.4484 113.003 25.385 114.876 27.2581C116.749 29.1312 117.686 31.3875 117.686 34.0269V59.5695C117.686 62.2089 116.749 64.4652 114.876 66.3383C113.003 68.2114 110.746 69.148 108.107 69.148ZM108.107 30.8341H95.3358C94.4418 30.8341 93.6755 31.1534 93.0369 31.7919C92.4409 32.3879 92.1429 33.1329 92.1429 34.0269V59.5695C92.1429 60.4635 92.4409 61.2298 93.0369 61.8683C93.6755 62.4643 94.4418 62.7623 95.3358 62.7623H108.107C109.001 62.7623 109.746 62.4643 110.342 61.8683C110.981 61.2298 111.3 60.4635 111.3 59.5695V34.0269C111.3 33.1329 110.981 32.3879 110.342 31.7919C109.746 31.1534 109.001 30.8341 108.107 30.8341ZM130.432 49.991V69.148H124.046V24.4484H146.396C149.035 24.4484 151.292 25.385 153.165 27.2581C155.038 29.1312 155.974 31.3875 155.974 34.0269V40.4126C155.974 43.052 155.038 45.3082 153.165 47.1813C151.292 49.0545 149.035 49.991 146.396 49.991H130.432ZM130.432 30.8341V43.6054H146.396C147.29 43.6054 148.035 43.3074 148.631 42.7114C149.27 42.0728 149.589 41.3065 149.589 40.4126V34.0269C149.589 33.1329 149.27 32.3879 148.631 31.7919C148.035 31.1534 147.29 30.8341 146.396 30.8341H130.432Z" fill="#2F28D0"/>
</g>
</svg>
