<svg width="117" height="31" viewBox="0 0 117 31" fill="none" xmlns="http://www.w3.org/2000/svg">
<mask id="mask0_518_270" style="mask-type:alpha" maskUnits="userSpaceOnUse" x="4" y="0" width="113" height="22">
<path d="M117 5.57412L4.40469 21.2659V0H117L117 5.57412Z" fill="#D9D9D9"/>
</mask>
<g mask="url(#mask0_518_270)">
<path d="M26.1529 30.4165H17.3435C15.5229 30.4165 13.9666 29.7704 12.6745 28.4784C11.3825 27.1864 10.7365 25.63 10.7365 23.8094V6.19059C10.7365 4.36998 11.3825 2.81365 12.6745 1.5216C13.9666 0.229555 15.5229 -0.416469 17.3435 -0.416469H26.1529C27.9736 -0.416469 29.5299 0.229555 30.8219 1.5216C32.114 2.81365 32.76 4.36998 32.76 6.19059V8.39294H28.3553V6.19059C28.3553 5.57393 28.1351 5.06005 27.6946 4.64894C27.2835 4.20847 26.7696 3.98824 26.1529 3.98824H17.3435C16.7269 3.98824 16.1983 4.20847 15.7578 4.64894C15.3467 5.06005 15.1412 5.57393 15.1412 6.19059V23.8094C15.1412 24.4261 15.3467 24.9546 15.7578 25.3951C16.1983 25.8062 16.7269 26.0118 17.3435 26.0118H26.1529C26.7696 26.0118 27.2835 25.8062 27.6946 25.3951C28.1351 24.9546 28.3553 24.4261 28.3553 23.8094V21.6071H32.76V23.8094C32.76 25.63 32.114 27.1864 30.8219 28.4784C29.5299 29.7704 27.9736 30.4165 26.1529 30.4165ZM54.7663 12.7976V-0.416469H59.171V30.4165H54.7663V17.2024H41.5522V30.4165H37.1475V-0.416469H41.5522V12.7976H54.7663ZM78.975 30.4165H70.1656C68.345 30.4165 66.7886 29.7704 65.4966 28.4784C64.2046 27.1864 63.5585 25.63 63.5585 23.8094V6.19059C63.5585 4.36998 64.2046 2.81365 65.4966 1.5216C66.7886 0.229555 68.345 -0.416469 70.1656 -0.416469H78.975C80.7956 -0.416469 82.3519 0.229555 83.644 1.5216C84.936 2.81365 85.5821 4.36998 85.5821 6.19059V23.8094C85.5821 25.63 84.936 27.1864 83.644 28.4784C82.3519 29.7704 80.7956 30.4165 78.975 30.4165ZM78.975 3.98824H70.1656C69.5489 3.98824 69.0204 4.20847 68.5799 4.64894C68.1688 5.06005 67.9632 5.57393 67.9632 6.19059V23.8094C67.9632 24.4261 68.1688 24.9546 68.5799 25.3951C69.0204 25.8062 69.5489 26.0118 70.1656 26.0118H78.975C79.5917 26.0118 80.1055 25.8062 80.5166 25.3951C80.9571 24.9546 81.1774 24.4261 81.1774 23.8094V6.19059C81.1774 5.57393 80.9571 5.06005 80.5166 4.64894C80.1055 4.20847 79.5917 3.98824 78.975 3.98824ZM94.3743 17.2024V30.4165H89.9696V-0.416469H105.386C107.207 -0.416469 108.763 0.229555 110.055 1.5216C111.347 2.81365 111.993 4.36998 111.993 6.19059V10.5953C111.993 12.4159 111.347 13.9722 110.055 15.2643C108.763 16.5563 107.207 17.2024 105.386 17.2024H94.3743ZM94.3743 3.98824V12.7976H105.386C106.003 12.7976 106.517 12.5921 106.928 12.181C107.368 11.7405 107.588 11.212 107.588 10.5953V6.19059C107.588 5.57393 107.368 5.06005 106.928 4.64894C106.517 4.20847 106.003 3.98824 105.386 3.98824H94.3743Z" fill="#2F28D0"/>
</g>
<mask id="mask1_518_270" style="mask-type:alpha" maskUnits="userSpaceOnUse" x="0" y="6" width="113" height="25">
<path d="M-1.52588e-05 21.8165L112.595 6.12471V31H-3.05176e-05L-1.52588e-05 21.8165Z" fill="#D9D9D9"/>
</mask>
<g mask="url(#mask1_518_270)">
<path d="M21.7482 30.9671H12.9388C11.1182 30.9671 9.5619 30.321 8.26985 29.029C6.9778 27.7369 6.33178 26.1806 6.33178 24.36V6.74117C6.33178 4.92056 6.9778 3.36423 8.26985 2.07219C9.5619 0.780137 11.1182 0.134114 12.9388 0.134114H21.7482C23.5689 0.134114 25.1252 0.780137 26.4172 2.07219C27.7093 3.36423 28.3553 4.92056 28.3553 6.74117V8.94353H23.9506V6.74117C23.9506 6.12451 23.7304 5.61063 23.2899 5.19953C22.8788 4.75906 22.3649 4.53882 21.7482 4.53882H12.9388C12.3222 4.53882 11.7936 4.75906 11.3531 5.19953C10.942 5.61063 10.7365 6.12451 10.7365 6.74117V24.36C10.7365 24.9767 10.942 25.5052 11.3531 25.9457C11.7936 26.3568 12.3222 26.5624 12.9388 26.5624H21.7482C22.3649 26.5624 22.8788 26.3568 23.2899 25.9457C23.7304 25.5052 23.9506 24.9767 23.9506 24.36V22.1576H28.3553V24.36C28.3553 26.1806 27.7093 27.7369 26.4172 29.029C25.1252 30.321 23.5689 30.9671 21.7482 30.9671ZM50.3616 13.3482V0.134114H54.7663V30.9671H50.3616V17.7529H37.1475V30.9671H32.7428V0.134114H37.1475V13.3482H50.3616ZM74.5703 30.9671H65.7609C63.9403 30.9671 62.384 30.321 61.0919 29.029C59.7999 27.7369 59.1538 26.1806 59.1538 24.36V6.74117C59.1538 4.92056 59.7999 3.36423 61.0919 2.07219C62.384 0.780137 63.9403 0.134114 65.7609 0.134114H74.5703C76.3909 0.134114 77.9473 0.780137 79.2393 2.07219C80.5313 3.36423 81.1774 4.92056 81.1774 6.74117V24.36C81.1774 26.1806 80.5313 27.7369 79.2393 29.029C77.9473 30.321 76.3909 30.9671 74.5703 30.9671ZM74.5703 4.53882H65.7609C65.1442 4.53882 64.6157 4.75906 64.1752 5.19953C63.7641 5.61063 63.5585 6.12451 63.5585 6.74117V24.36C63.5585 24.9767 63.7641 25.5052 64.1752 25.9457C64.6157 26.3568 65.1442 26.5624 65.7609 26.5624H74.5703C75.187 26.5624 75.7009 26.3568 76.112 25.9457C76.5524 25.5052 76.7727 24.9767 76.7727 24.36V6.74117C76.7727 6.12451 76.5524 5.61063 76.112 5.19953C75.7009 4.75906 75.187 4.53882 74.5703 4.53882ZM89.9696 17.7529V30.9671H85.5649V0.134114H100.981C102.802 0.134114 104.358 0.780137 105.65 2.07219C106.942 3.36423 107.588 4.92056 107.588 6.74117V11.1459C107.588 12.9665 106.942 14.5228 105.65 15.8149C104.358 17.1069 102.802 17.7529 100.981 17.7529H89.9696ZM89.9696 4.53882V13.3482H100.981C101.598 13.3482 102.112 13.1427 102.523 12.7316C102.963 12.2911 103.184 11.7625 103.184 11.1459V6.74117C103.184 6.12451 102.963 5.61063 102.523 5.19953C102.112 4.75906 101.598 4.53882 100.981 4.53882H89.9696Z" fill="#2F28D0"/>
</g>
</svg>
